<svg width="18" height="15" viewBox="0 0 18 15" fill="none" xmlns="http://www.w3.org/2000/svg">
<path fill-rule="evenodd" clip-rule="evenodd" d="M17.5949 0.436415C17.848 0.715618 17.9902 1.09425 17.9902 1.48904C17.9902 1.88384 17.848 2.26247 17.5949 2.54167L7.47624 13.7012C7.34252 13.8487 7.18376 13.9657 7.00903 14.0456C6.8343 14.1254 6.64702 14.1665 6.45789 14.1665C6.26876 14.1665 6.08148 14.1254 5.90675 14.0456C5.73202 13.9657 5.57326 13.8487 5.43954 13.7012L0.412139 8.15766C0.2832 8.02032 0.180354 7.85603 0.109602 7.67438C0.0388501 7.49274 0.00160862 7.29737 5.09714e-05 7.09968C-0.00150668 6.90199 0.0326508 6.70593 0.10053 6.52296C0.168409 6.33998 0.268651 6.17375 0.395406 6.03395C0.522161 5.89416 0.672891 5.78361 0.838801 5.70875C1.00471 5.63388 1.18248 5.59621 1.36173 5.59793C1.54098 5.59965 1.71813 5.64072 1.88284 5.71875C2.04754 5.79678 2.19651 5.91021 2.32104 6.05241L6.45744 10.6143L15.6851 0.436415C15.8105 0.29806 15.9594 0.188306 16.1232 0.113424C16.2871 0.0385421 16.4627 0 16.64 0C16.8174 0 16.993 0.0385421 17.1569 0.113424C17.3207 0.188306 17.4696 0.29806 17.5949 0.436415Z" fill="#FDFDFF"/>
</svg>
